#!OML:ASF E:/inclinewalkrobotboard/Project1/Captureday1/Session1/subject1.ASF
:FULLY-SPECIFIED
:DEGREES
110
root 0 0 0 -2.119496224074311 -3.751850503201655 0.49795262784837585
lowerback 7.6109697568017 1.5947118106562397 -2.533113776686225
upperback 1.8819937334298102 1.9768541524863845 -0.06105887411866595
thorax -2.3516963709974736 1.039230472727963 1.2426942771858016
lowerneck -9.31013976803464 -5.532664696226945 -6.431933439149062
upperneck 30.972049707143963 -8.64886894510278 6.123203976957246
head 11.593611915503566 -3.945275837734416 2.0425073258995567
rclavicle -1.5380519813915276E-15 1.4822853982796907E-15
rhumerus -8.696722054589383 2.274126341086128 -79.72462368945163
rradius 49.26538500744507
rwrist -20.812592211355376
rhand -42.04401186254596 16.083352159551023
rfingers 7.125019999999945
rthumb -14.886001565636736 -13.32933387549462
lclavicle -5.850714294779016E-15 1.1110002491699965E-15
lhumerus -30.959054643529644 11.953082099501135 77.08767492791922
lradius 24.796291966041995
lwrist -4.811561722263996
lhand -24.447934847137454 21.807766330116294
lfingers 7.125019999999957
lthumb 2.048041124671534 51.749264862693146
rfemur -3.106362906900213 8.12543261339945 33.982821549737224
rtibia 31.4055770576705
rfoot -17.769939020615375 -9.365715149241431
rtoes 4.259175283451689
lfemur -29.900305524180084 1.2759916439652823 -14.533520464674293
ltibia 41.28685796691555
lfoot -3.545909124571443 -5.932307746173963
ltoes -3.8220098935945117
111
root 0 0 0 -2.132432474534282 -3.775765504563996 0.4941663455230045
lowerback 7.611343477809496 1.5850214857753915 -2.53119008972437
upperback 1.865353070611722 1.9645916061632929 -0.054605586899446834
thorax -2.370075987052995 1.0326146499628974 1.2504997929579145
lowerneck -9.343511937324424 -5.524928224671579 -6.409409045871952
upperneck 31.022341114719005 -8.64070498066096 6.090937559651341
head 11.609103845592982 -3.9410089725557116 2.030408300447994
rclavicle -1.4441674406448236E-15 1.4282674580224161E-15
rhumerus -8.38946104653548 1.9228329908960435 -79.64087201381717
rradius 48.91033925951207
rwrist -20.706367307053892
rhand -42.05025007349093 16.18118531005433
rfingers 7.125019999999943
rthumb -14.889059652008289 -13.229122915231686
lclavicle -5.783916783284544E-15 1.001004892422571E-15
lhumerus -30.876307382516085 11.89255477617539 77.22557350560037
lradius 24.840632906594404
lwrist -4.747837133483409
lhand -24.41621204550698 21.815903581177352
lfingers 7.125019999999956
lthumb 2.078364565109387 51.757158006838864
rfemur -5.949577566767532 7.997285025584519 33.6273767728486
rtibia 33.15716053415913
rfoot -16.54932908354829 -9.554812536237126
rtoes 4.752260223806184
lfemur -28.842485336573585 1.5372785425004327 -14.956148748380496
ltibia 43.002252253463695
lfoot -3.2929300628108944 -6.636744898699751
ltoes -3.7693074414123124
112
root 0 0 0 -2.151440991922453 -3.8083978681482002 0.49006825508006074
lowerback 7.60299410997322 1.5735533047353125 -2.5281374655350195
upperback 1.8466266497068426 1.950223360691738 -0.047717592804015
thorax -2.3853584904358947 1.0249583262886843 1.258604817746543
lowerneck -9.372257759109054 -5.515305387673148 -6.3840222948721825
upperneck 31.085063230263838 -8.632262915872696 6.049521031704257
head 11.627481165135398 -3.9366022972477928 2.014316782721265
rclavicle -1.4209353910145968E-15 1.3701972891591367E-15
rhumerus -8.090981279047352 1.5979581305766475 -79.55078853393644
rradius 48.606720986023824
rwrist -20.62368391196733
rhand -42.0425878885656 16.248970820124033
rfingers 7.1250199999999415
rthumb -14.879531043260641 -13.15970484701543
lclavicle -5.7671297315742575E-15 8.762613317747324E-16
lhumerus -30.774125452637776 11.810546532030015 77.39897812882384
lradius 24.895185497658105
lwrist -4.669457554642056
lhand -24.37064867055545 21.830089458656744
lfingers 7.125019999999955
lthumb 2.121931832220825 51.770817471554444
rfemur -9.141449211657402 7.855913781949565 33.240801249703246
rtibia 35.01371720649634
rfoot -15.195392178713956 -9.722454102941365
rtoes 5.304287377417754
lfemur -27.595262093453595 1.8923641394314572 -15.358571850525228
ltibia 45.41733919122427
lfoot -3.073817433046232 -7.364577016799162
ltoes -3.9216757577269554
113
root 0 0 0 -2.177677888508328 -3.8483058802460834 0.4852026992919923
lowerback 7.584394754937706 1.5607418245371851 -2.523384216573844
upperback 1.8242589274612548 1.9344031433958029 -0.040774807184430606
thorax -2.3982503893048186 1.0165256954380295 1.2660804220892778
lowerneck -9.399784976102925 -5.503716358577566 -6.355799668023567
upperneck 31.158385550466033 -8.623172813460041 5.997951925731626
head 11.648701183349933 -3.93175618645845 1.9938937382009558
rclavicle -1.4746462159266588E-15 1.3212258025962067E-15
rhumerus -7.815578778916958 1.3207770744904743 -79.45835319932212
rradius 48.38525598425303
rwrist -20.568044194591014
rhand -42.02323929969598 16.280174682465493
rfingers 7.125019999999941
rthumb -14.85957611299541 -13.127517107683689
lclavicle -5.794082083329036E-15 7.507827334266327E-16
lhumerus -30.65991596918516 11.710287223940394 77.59613589944878
lradius 24.951939359823548
lwrist -4.588085093739847
lhand -24.306640549548575 21.851588294286714
lfingers 7.125019999999953
lthumb 2.1831589325025815 51.791553504759584
rfemur -12.128765210292354 7.709975748333967 32.92665675299193
rtibia 36.71061577199466
rfoot -13.940460152446091 -9.799917173996805
rtoes 5.882275522005127
lfemur -26.317634187147622 2.3030710289403036 -15.660579118426352
ltibia 48.38074763496827
lfoot -2.8804244258722385 -7.986971812950278
ltoes -4.270803980708271
114
root 0 0 0 -2.2101644331895596 -3.890296448214691 0.47948960231212084
lowerback 7.554610261490565 1.5482592737973428 -2.5162757264399933
upperback 1.7988529146038688 1.9194049230925847 -0.034671699563271985
thorax -2.4074846800513736 1.0084469802641722 1.2711992710603273
lowerneck -9.426105611375569 -5.490696630336911 -6.326837198911056
upperneck 31.234655244553327 -8.613452397159296 5.938990171679812
head 11.67093500870421 -3.926428534705561 1.9702925173007866
rclavicle -1.6161749655394784E-15 1.2941041835182994E-15
rhumerus -7.622436791268623 1.1521583839297747 -79.38295985463687
rradius 48.301985656244035
rwrist -20.55612131396824
rhand -41.995704176887884 16.25916715484686
rfingers 7.12501999999994
rthumb -14.833079052701097 -13.148335041939959
lclavicle -5.860164471124633E-15 6.484685990970378E-16
lhumerus -30.54821379898209 11.602311752983018 77.79285697086294
lradius 25.000849562673043
lwrist -4.518167139432911
lhand -24.226584750351645 21.87955645026792
lfingers 7.125019999999952
lthumb 2.259793347698836 51.81857186571237
rfemur -14.249199700779949 7.589690302707366 32.768986922670706
rtibia 37.81023214228701
rfoot -13.100786356450843 -9.75899429928023
rtoes 6.439977608719483
lfemur -25.296608413399152 2.711498672607675 -15.73360888096635
ltibia 51.561822103224614
lfoot -2.753569658229944 -8.295228930800969
ltoes -4.789122319074305
